<svg xmlns="http://www.w3.org/2000/svg" viewBox="0 0 158.5 625">
    <line class="cls-1" x1="15.37" y1="513.5" x2="15.37" y2="382.03"/>
    <line class="cls-1" x1="15.37" y1="352.24" x2="15.37" y2="351.6"/>
    <line class="cls-1" x1="15.37" y1="351.6" x2="15.37" y2="111.33"/>
    <line class="cls-1" x1="79.48" y1="153.42" x2="79.48" y2="105.5"/>
    <line class="cls-1" x1="79.48" y1="284.89" x2="79.48" y2="259.63"/>
    <line class="cls-1" x1="79.48" y1="312.09" x2="79.48" y2="324.4"/>
    <line class="cls-1" x1="79.48" y1="338" x2="79.48" y2="422.19"/>
    <line class="cls-1" x1="79.48" y1="448.09" x2="79.48" y2="474.64"/>
    <line class="cls-1" x1="143.6" y1="513.5" x2="143.6" y2="111.33"/>
    <polygon class="svg-fill-white-2" points="0.5 513.5 14.55 513.5 16.2 522.24 18.56 531.5 21.57 539.5 24.58 545.5 29.59 553.5 33.61 558.5 41.63 565.5 48.65 569.5 55.68 572.5 64.7 575.5 81.76 576.5 100.82 573.5 111.86 568.5 118.88 563.5 125.9 557.5 131.92 549.5 134.93 544.5 138.92 535.59 141.95 524.5 143.57 513.09 157.5 513 157.5 625 0 625 0.5 513.5"/>
    <path class="cls-1" d="M1.35,583.75V513.5h14s3.5,63.5,64.81,62.85c60.88-.66,63.42-62.85,63.42-62.85h13.87V610"/>
    <path class="cls-1" d="M65.35,590.75s-28.5-3.5-44-24.5"/>
    <line class="cls-1" x1="157.45" y1="613.5" x2="157.45" y2="624.5"/>
    <polygon class="svg-fill-white-2" points="158 111.5 144 111.5 142.35 102.77 140 93.5 137 85.5 134 79.5 129 71.5 125 66.5 117 59.5 110 55.5 103 52.5 94 49.5 77 48.5 58 51.5 47 56.5 40 61.5 33 67.5 27 75.5 24 80.5 20.02 89.42 17 100.5 15.39 111.92 1.5 112 1.5 0 158.5 0 158 111.5"/>
    <path class="cls-1" d="M157.6,41.25V111.5h-14S140.1,48,78.79,48.65c-60.88.66-63.42,62.85-63.42,62.85H1.5V15"/>
    <path class="cls-1" d="M110.51,38.91C121,43.09,130.82,49.57,137.6,58.75"/>
    <path class="cls-1" d="M93.6,34.25a67.56,67.56,0,0,1,10.77,2.5"/>
    <line class="cls-1" x1="1.5" y1="11.5" x2="1.5" y2="0.5"/>
</svg>
