<svg xmlns="http://www.w3.org/2000/svg" viewBox="0 0 1920 159">
    <line class="cls-1" y1="158" x2="511" y2="158"/>
    <line class="cls-1" x1="592" y1="158" x2="622" y2="158"/>
    <line class="cls-1" x1="637" y1="158" x2="740" y2="158"/>
    <line class="cls-1" x1="769" y1="158" x2="1361" y2="158"/>
    <line class="cls-1" x1="1405" y1="158" x2="1920" y2="158"/>
    <line class="cls-1" x1="1461" y1="118" x2="1499" y2="118"/>
    <line class="cls-1" x1="1373" y1="118" x2="1395" y2="118"/>
    <line class="cls-1" x1="1213" y1="118" x2="1235" y2="118"/>
    <line class="cls-1" x1="1153" y1="118" x2="1161" y2="118"/>
    <line class="cls-1" x1="1057" y1="118" x2="1079" y2="118"/>
    <line class="cls-1" x1="954" y1="118" x2="994" y2="118"/>
    <line class="cls-1" x1="864" y1="118" x2="886" y2="118"/>
    <line class="cls-1" x1="567" y1="144" x2="580" y2="144"/>
    <line class="cls-1" x1="579" y1="135" x2="601" y2="135"/>
    <line class="cls-1" x1="483" y1="118" x2="523" y2="118"/>
    <line class="cls-1" x1="294" y1="87" x2="869" y2="87"/>
    <line class="cls-1" x1="947" y1="87" x2="1023" y2="87"/>
    <line class="cls-1" x1="1041" y1="87" x2="1218" y2="87"/>
    <line class="cls-1" x1="1282" y1="87" x2="1562" y2="87"/>
    <path class="cls-2" d="M1482.5,86.5V43A40.5,40.5,0,0,1,1523,2.5"/>
    <path class="cls-2" d="M1508,1.5A40.5,40.5,0,0,0,1467.5,42V85.5"/>
    <path class="cls-2" d="M1507.5,1.5h138"/>

    <rect class="cls-3" x="695.85" y="61.67" width="185.72" height="59.27"/>
    <path class="cls-4" d="M934.8,103.36h-1.7V86h1.64V80.51s0-6.73-6.14-6.77c-6.88-.06-40.43,0-40.43,0V133h9.14a11.52,11.52,0,0,1,23,0h9.13s5.38-.92,5.29-6.35C934.81,123.16,934.82,113.16,934.8,103.36Z"/>
    <rect class="cls-5" x="694.94" y="61.67" width="185.8" height="59.27"/>
    <rect class="cls-4" x="799.03" y="120.94" width="15.24" height="15.24"/>
    <path class="cls-5" d="M699.54,120.94h93.4V128a5.33,5.33,0,0,1-5.33,5.33H707.12a7.58,7.58,0,0,1-7.58-7.58h0v-4.84Z"/>
    <path class="cls-5" d="M825.49,120.94h62.65V133.1H833.07a7.58,7.58,0,0,1-7.58-7.58h0v-4.58Z"/>
    <path class="cls-4" d="M933.1,86l.11,17.36-24.13-3.69s-4.23-.21-4.44-3.81,0-7.31,0-7.31.2-2.52,3.7-2.54Z"/>
    <path class="cls-4" d="M928.82,114.38h6v7.51h-6.23a3.19,3.19,0,0,1-3.21-3.17v-.94A3.43,3.43,0,0,1,928.82,114.38Z"/>
    <path class="cls-4" d="M891.25,73.73V64.85s14.4.06,19.26,8.88C901.76,73.67,891.25,73.73,891.25,73.73Z"/>
    <circle class="cls-4" cx="845.28" cy="133.61" r="11.54"/>
    <circle class="cls-6" cx="845.28" cy="133.61" r="4.13"/>
    <circle class="cls-4" cx="908.78" cy="133.61" r="11.54"/>
    <circle class="cls-6" cx="908.78" cy="133.61" r="4.13"/>
    <circle class="cls-4" cx="772.4" cy="133.61" r="11.54"/>
    <circle class="cls-6" cx="772.4" cy="133.61" r="4.13"/>
    <circle class="cls-4" cx="746.15" cy="133.61" r="11.54"/>
    <circle class="cls-6" cx="746.15" cy="133.61" r="4.13"/>
    <circle class="cls-4" cx="719.9" cy="133.61" r="11.54"/>
    <circle class="cls-6" cx="719.9" cy="133.61" r="4.13"/>
    <line class="cls-5" x1="880.74" y1="103.9" x2="888.14" y2="103.9"/>
    <polygon class="cls-7" points="1920 157.5 1563.23 157.5 1563.23 36.5 1559.27 24.5 1550.35 13.5 1533.5 1.5 1920 3.5 1920 157.5"/>
    <path class="cls-2" d="M1523,2.5c22.37,0,40.5,15.78,40.5,37V157.88"/>

</svg>
