<svg xmlns="http://www.w3.org/2000/svg" viewBox="0 0 660.77 289.4">
    <path class="cls-1" d="M265.54.5h.67a1.38,1.38,0,0,1,1.38,1.38V287.53a1.37,1.37,0,0,1-1.37,1.37h-.67a1.38,1.38,0,0,1-1.38-1.38V1.88A1.37,1.37,0,0,1,265.54.5Z"/>
    <path class="cls-1" d="M348.54-278.82h.67a1.37,1.37,0,0,1,1.37,1.37v657a1.37,1.37,0,0,1-1.37,1.37h-.67a1.37,1.37,0,0,1-1.37-1.37v-657a1.38,1.38,0,0,1,1.38-1.38Z" transform="translate(279.32 351.09) rotate(-90)"/>
    <path class="cls-1" d="M480.37-88.79H481a1.38,1.38,0,0,1,1.38,1.38V305.93a1.37,1.37,0,0,1-1.37,1.37h-.67a1.38,1.38,0,0,1-1.38-1.38V-87.42A1.37,1.37,0,0,1,480.37-88.79Z" transform="translate(352.96 541.11) rotate(-90)"/>
    <path class="cls-1" d="M480.37-29.46H481a1.38,1.38,0,0,1,1.38,1.38V365.26a1.38,1.38,0,0,1-1.38,1.38h-.67a1.38,1.38,0,0,1-1.38-1.38V-28.09a1.37,1.37,0,0,1,1.37-1.37Z" transform="translate(293.63 600.44) rotate(-90)"/>
    <path class="cls-1" d="M480.37,28.72H481a1.38,1.38,0,0,1,1.38,1.38V423.45a1.38,1.38,0,0,1-1.38,1.38h-.67a1.38,1.38,0,0,1-1.38-1.38V30.1a1.37,1.37,0,0,1,1.37-1.37Z" transform="translate(235.44 658.63) rotate(-90)"/>
    <path class="cls-1" d="M328.72.5h.67a1.37,1.37,0,0,1,1.37,1.37V287.53a1.38,1.38,0,0,1-1.37,1.38h-.67a1.37,1.37,0,0,1-1.37-1.37V1.88A1.38,1.38,0,0,1,328.72.5Z"/>
    <path class="cls-1" d="M395,.5h.67a1.37,1.37,0,0,1,1.37,1.37V287.53a1.38,1.38,0,0,1-1.37,1.38H395a1.37,1.37,0,0,1-1.37-1.37V1.88A1.38,1.38,0,0,1,395,.5Z"/>
    <path class="cls-1" d="M461.5.5h.67a1.38,1.38,0,0,1,1.38,1.38V287.53a1.37,1.37,0,0,1-1.37,1.37h-.67a1.38,1.38,0,0,1-1.38-1.38V1.87A1.37,1.37,0,0,1,461.5.5Z"/>
    <path class="cls-1" d="M527.39.5h.67a1.37,1.37,0,0,1,1.37,1.37V287.53a1.37,1.37,0,0,1-1.37,1.37h-.67a1.37,1.37,0,0,1-1.37-1.37V1.88A1.38,1.38,0,0,1,527.39.5Z"/>
    <path class="cls-1" d="M592.8.5h.67a1.37,1.37,0,0,1,1.37,1.37V287.53a1.38,1.38,0,0,1-1.37,1.38h-.67a1.37,1.37,0,0,1-1.37-1.37V1.88A1.38,1.38,0,0,1,592.8.5Z"/>
    <path class="cls-1" d="M1.88.5h.67A1.37,1.37,0,0,1,3.92,1.87V287.53a1.37,1.37,0,0,1-1.37,1.37H1.87A1.37,1.37,0,0,1,.5,287.53V1.88A1.38,1.38,0,0,1,1.88.5Z"/>
    <path class="cls-1" d="M658.22.5h.67a1.37,1.37,0,0,1,1.37,1.37V287.53a1.38,1.38,0,0,1-1.38,1.38h-.67a1.37,1.37,0,0,1-1.37-1.37V1.87A1.37,1.37,0,0,1,658.22.5Z"/>
    <rect class="cls-2" x="408.71" y="49.85" width="39.79" height="4.42" rx="1.34" ry="1.34"/>
    <rect class="cls-2" x="408.71" y="14.05" width="39.79" height="4.42" rx="1.34" ry="1.34"/>
    <rect class="cls-2" x="409.3" y="80.8" width="40.22" height="4.42" rx="1.34" ry="1.34" transform="translate(327.91 463.57) rotate(-90)"/>
    <rect class="cls-2" x="444.67" y="80.8" width="40.22" height="4.42" rx="1.34" ry="1.34" transform="translate(363.28 498.94) rotate(-90)"/>
    <circle class="cls-2" cx="410.91" cy="51.69" r="0.34"/>
    <circle class="cls-2" cx="446.28" cy="51.69" r="0.34"/>
    <circle class="cls-2" cx="410.91" cy="16.51" r="0.34"/>
    <circle class="cls-2" cx="446.28" cy="16.51" r="0.34"/>
    <circle class="cls-3" cx="286.11" cy="36.2" r="0.15"/>
    <circle class="cls-3" cx="301.51" cy="36.2" r="0.15"/>
    <path class="cls-2" d="M669.33,101.84H619.94a2,2,0,0,0-2,2v1.67a2,2,0,0,0,2,2H627v-.71a2.88,2.88,0,0,1,2.88-2.87h5.47a2.87,2.87,0,0,1,2.87,2.87v.71H651v-.71a2.88,2.88,0,0,1,2.88-2.87h5.46a2.88,2.88,0,0,1,2.88,2.87v.71h7.11a2,2,0,0,0,2-2v-1.67A2,2,0,0,0,669.33,101.84Z" transform="translate(-18.49 -48.86)"/>
    <path class="cls-2" d="M467.41,161.86H427.15a1.65,1.65,0,0,0-1.65,1.65v1.35a1.65,1.65,0,0,0,1.65,1.65h5.79v-.57a2.35,2.35,0,0,1,2.35-2.35h4.45a2.35,2.35,0,0,1,2.35,2.35v.57h10.38v-.57a2.35,2.35,0,0,1,2.34-2.35h4.46a2.35,2.35,0,0,1,2.35,2.35v.57h5.79a1.65,1.65,0,0,0,1.65-1.65v-1.35A1.65,1.65,0,0,0,467.41,161.86Z" transform="translate(-18.49 -48.86)"/>
    <path class="cls-2" d="M534,220.26H493.77a1.65,1.65,0,0,0-1.65,1.65v1.35a1.65,1.65,0,0,0,1.65,1.65h5.79v-.57a2.35,2.35,0,0,1,2.35-2.35h4.45a2.35,2.35,0,0,1,2.35,2.35v.57h10.38v-.57a2.35,2.35,0,0,1,2.35-2.35h4.45a2.35,2.35,0,0,1,2.35,2.35v.57H534a1.65,1.65,0,0,0,1.65-1.65v-1.35A1.65,1.65,0,0,0,534,220.26Z" transform="translate(-18.49 -48.86)"/>
    <path class="cls-2" d="M467.41,103H427.15a1.65,1.65,0,0,0-1.65,1.65V106a1.65,1.65,0,0,0,1.65,1.65h5.79v-.57a2.35,2.35,0,0,1,2.35-2.35h4.45a2.35,2.35,0,0,1,2.35,2.35v.57h10.38v-.57a2.35,2.35,0,0,1,2.34-2.35h4.46a2.35,2.35,0,0,1,2.35,2.35v.57h5.79a1.65,1.65,0,0,0,1.65-1.65v-1.35A1.65,1.65,0,0,0,467.41,103Z" transform="translate(-18.49 -48.86)"/>
    <path class="cls-2" d="M401.26,103H361a1.65,1.65,0,0,0-1.65,1.65V106a1.65,1.65,0,0,0,1.65,1.65h5.79v-.57a2.35,2.35,0,0,1,2.34-2.35h4.46a2.35,2.35,0,0,1,2.35,2.35v.57h10.38v-.57a2.35,2.35,0,0,1,2.34-2.35h4.46a2.35,2.35,0,0,1,2.34,2.35v.57h5.8a1.65,1.65,0,0,0,1.65-1.65v-1.35A1.65,1.65,0,0,0,401.26,103Z" transform="translate(-18.49 -48.86)"/>
    <path class="cls-2" d="M532.5,102.9H492.23a1.63,1.63,0,0,0-1.64,1.64v1.36a1.64,1.64,0,0,0,1.64,1.65H498V107a2.34,2.34,0,0,1,2.34-2.34h4.46a2.34,2.34,0,0,1,2.34,2.34v.58h10.38V107a2.35,2.35,0,0,1,2.35-2.34h4.46A2.34,2.34,0,0,1,526.7,107v.58h5.8a1.64,1.64,0,0,0,1.64-1.65v-1.36A1.63,1.63,0,0,0,532.5,102.9Z" transform="translate(-18.49 -48.86)"/>
    <path class="cls-2" d="M400.23,162.09H360a1.65,1.65,0,0,0-1.65,1.65v1.35a1.65,1.65,0,0,0,1.65,1.65h5.79v-.57a2.35,2.35,0,0,1,2.35-2.35h4.46a2.35,2.35,0,0,1,2.34,2.35v.57h10.38v-.57a2.35,2.35,0,0,1,2.35-2.35h4.45a2.35,2.35,0,0,1,2.35,2.35v.57h5.79a1.65,1.65,0,0,0,1.65-1.65v-1.35A1.65,1.65,0,0,0,400.23,162.09Z" transform="translate(-18.49 -48.86)"/>
    <path class="cls-2" d="M401.83,219.79h-43.2a1.77,1.77,0,0,0-1.77,1.77V223a1.77,1.77,0,0,0,1.77,1.77h6.21v-.62a2.51,2.51,0,0,1,2.52-2.51h4.78a2.51,2.51,0,0,1,2.52,2.51v.62H385.8v-.62a2.51,2.51,0,0,1,2.51-2.51h4.79a2.51,2.51,0,0,1,2.51,2.51v.62h6.22A1.77,1.77,0,0,0,403.6,223v-1.45A1.77,1.77,0,0,0,401.83,219.79Z" transform="translate(-18.49 -48.86)"/>
    <path class="cls-2" d="M600.16,161.42H557a1.77,1.77,0,0,0-1.76,1.77v1.46a1.76,1.76,0,0,0,1.76,1.76h6.22v-.61a2.52,2.52,0,0,1,2.51-2.52h4.79A2.51,2.51,0,0,1,573,165.8v.61h11.14v-.61a2.52,2.52,0,0,1,2.52-2.52h4.78a2.52,2.52,0,0,1,2.52,2.52v.61h6.22a1.76,1.76,0,0,0,1.76-1.76v-1.46A1.77,1.77,0,0,0,600.16,161.42Z" transform="translate(-18.49 -48.86)"/>
    <path class="cls-2" d="M667.13,220.07h-43.2a1.77,1.77,0,0,0-1.77,1.77v1.46a1.76,1.76,0,0,0,1.77,1.76h6.21v-.61a2.52,2.52,0,0,1,2.52-2.52h4.78a2.52,2.52,0,0,1,2.52,2.52v.61H651.1v-.61a2.52,2.52,0,0,1,2.51-2.52h4.79a2.51,2.51,0,0,1,2.51,2.52v.61h6.22a1.76,1.76,0,0,0,1.77-1.76v-1.46A1.77,1.77,0,0,0,667.13,220.07Z" transform="translate(-18.49 -48.86)"/>
    <path class="cls-2" d="M341.55,161.92H290.86a1.94,1.94,0,0,0-2.07,1.77v1.45a1.94,1.94,0,0,0,2.07,1.77h7.3v-.61a2.76,2.76,0,0,1,2.95-2.52h5.61a2.76,2.76,0,0,1,2.95,2.52v.61h13.07v-.61a2.76,2.76,0,0,1,2.95-2.52h5.61a2.77,2.77,0,0,1,3,2.52v.61h7.29a1.94,1.94,0,0,0,2.08-1.77v-1.45A1.94,1.94,0,0,0,341.55,161.92Z" transform="translate(-18.49 -48.86)"/>
    <rect class="cls-4" x="552.57" y="73.08" width="3.25" height="1.23" rx="0.54" ry="0.54"/>
    <path class="cls-4" d="M573.77,123.64v-.47h-2.2v.47a3,3,0,0,0-1.23,2.35v5.62a.85.85,0,0,0,.86.86h2.94a.86.86,0,0,0,.86-.86V126A3,3,0,0,0,573.77,123.64Z" transform="translate(-18.49 -48.86)"/>
    <path class="cls-4" d="M570.34,126.83a2.12,2.12,0,0,0,2.43.12,1.77,1.77,0,0,1,2.23.1" transform="translate(-18.49 -48.86)"/>
    <path class="cls-5" d="M583.05,150.11a1.88,1.88,0,0,0-.94.71h0a1,1,0,0,0-.77-.32,1,1,0,0,0-1,.72,1.26,1.26,0,0,0-1.06-.56,1.24,1.24,0,0,0-1.1.64,1,1,0,0,0-1-.85,1.06,1.06,0,0,0-.81.37h0a1.31,1.31,0,0,0-1-.77,1.86,1.86,0,0,0-.85,0s0,.14,0,.25l1,2.42a3.89,3.89,0,0,0,3.67,1.87c2.63-.15,3.56-1.44,3.56-1.44l1.37-3.06A1.28,1.28,0,0,0,583.05,150.11ZM580.49,152v0S580.49,152,580.49,152Z" transform="translate(-18.49 -48.86)"/>
    <line class="cls-6" x1="558.06" y1="102.88" x2="558.61" y2="104.31"/>
    <line class="cls-6" x1="559.85" y1="103.45" x2="560.05" y2="104.79"/>
    <line class="cls-6" x1="561.71" y1="103.45" x2="561.5" y2="104.73"/>
    <line class="cls-6" x1="562.85" y1="104.31" x2="563.46" y2="103.03"/>
    <circle class="cls-5" cx="557.56" cy="97.2" r="1.82"/>
    <path class="cls-7" d="M575.37,145.18s.28.46,1,.07" transform="translate(-18.49 -48.86)"/>
    <path class="cls-7" d="M573.65,143.59s2.05-.63,2.25,1.33" transform="translate(-18.49 -48.86)"/>
    <path class="cls-7" d="M579.1,147.23a8.76,8.76,0,0,0,2.54-.16" transform="translate(-18.49 -48.86)"/>
    <path class="cls-7" d="M577.87,149.42a14.48,14.48,0,0,0,2.76,0" transform="translate(-18.49 -48.86)"/>
    <path class="cls-7" d="M581.64,149.19a2.39,2.39,0,0,0,1.17-.5" transform="translate(-18.49 -48.86)"/>
    <path class="cls-7" d="M575.37,148.61a3.69,3.69,0,0,0,1,.49" transform="translate(-18.49 -48.86)"/>
    <path class="cls-5"
          d="M583.46,148.45a1.59,1.59,0,0,0-1.16-1.87c-.35-.81.26-3.09-2.77-3,.36,0,1.11,1.52-.22,1.53a4,4,0,0,0-1.6.19h0a1.91,1.91,0,0,1,.16.76,1.82,1.82,0,0,1-1.82,1.83,1.86,1.86,0,0,1-.88-.23h0c-.36.25-.17.8-.17.8a1.34,1.34,0,0,0-.46,1.62,1.86,1.86,0,0,1,.85,0,1.31,1.31,0,0,1,1,.77h0a1.06,1.06,0,0,1,.81-.37,1,1,0,0,1,1,.85,1.24,1.24,0,0,1,1.1-.64,1.26,1.26,0,0,1,1.06.56,1,1,0,0,1,1-.72,1,1,0,0,1,.77.32h0a1.88,1.88,0,0,1,.94-.71,1.28,1.28,0,0,1,1.07,0A1.34,1.34,0,0,0,583.46,148.45Z"
          transform="translate(-18.49 -48.86)"/>
    <circle class="cls-4" cx="433.61" cy="29.5" r="0.92"/>
    <path class="cls-4" d="M441.75,77.44s2.1-2.18,3.84-.64a7.29,7.29,0,0,0-2,2.21S442.76,78.84,441.75,77.44Z" transform="translate(-18.49 -48.86)"/>
    <path class="cls-4" d="M450.41,75.78a6.71,6.71,0,0,0-6.7,3A11.5,11.5,0,0,0,442.17,84l-2.55-.33c-.86-.12-1.16.43-1.16.78a.85.85,0,0,0,.85.85h.12a.84.84,0,0,0,.73,1.27.78.78,0,0,0,.31-.06.82.82,0,0,0-.17.51.85.85,0,0,0,.85.85,1,1,0,0,0,.25,0,.83.83,0,0,0,.68,1.34c.18,0,.5-.16.69-.94l.52-2s5.1,2.61,8.51.33,4.57-9,4.78-9.38S450.79,75.78,450.41,75.78Z" transform="translate(-18.49 -48.86)"/>
    <path class="cls-4" d="M449.28,90.31a3,3,0,0,1-1.39-2.84,5.93,5.93,0,0,0,3.16-.51S450.82,89.63,449.28,90.31Z" transform="translate(-18.49 -48.86)"/>
    <path class="cls-4" d="M449.24,77.44s-1,4.77,3.44,5.91" transform="translate(-18.49 -48.86)"/>
    <path class="cls-4" d="M447.93,78.27s-1,4.76,3.44,5.91" transform="translate(-18.49 -48.86)"/>
    <path class="cls-4" d="M446.61,79s-1,4.76,3.44,5.91" transform="translate(-18.49 -48.86)"/>
    <path class="cls-4" d="M445.4,79.77s-1,4.77,3.44,5.91" transform="translate(-18.49 -48.86)"/>
    <circle class="cls-5" cx="640.33" cy="159.16" r="0.57"/>
    <path class="cls-5" d="M652.45,207.45s1.29-1.34,2.36-.4a4.6,4.6,0,0,0-1.25,1.37S653.07,208.31,652.45,207.45Z" transform="translate(-18.49 -48.86)"/>
    <path class="cls-5" d="M657.78,206.43a4.15,4.15,0,0,0-4.13,1.82,7.13,7.13,0,0,0-.94,3.25l-1.57-.21c-.53-.07-.71.27-.71.49a.52.52,0,0,0,.52.52H651a.59.59,0,0,0-.07.26.52.52,0,0,0,.52.52.54.54,0,0,0,.19,0,.52.52,0,0,0-.1.31.52.52,0,0,0,.52.52l.15,0a.51.51,0,0,0-.1.3.52.52,0,0,0,.53.52c.11,0,.3-.1.42-.57l.32-1.25s3.14,1.61,5.23.2,2.81-5.53,2.94-5.76S658,206.43,657.78,206.43Z" transform="translate(-18.49 -48.86)"/>
    <path class="cls-5" d="M657.08,215.37a1.84,1.84,0,0,1-.85-1.75,3.73,3.73,0,0,0,1.94-.31S658,215,657.08,215.37Z" transform="translate(-18.49 -48.86)"/>
    <path class="cls-5" d="M657.06,207.45s-.61,2.93,2.11,3.64" transform="translate(-18.49 -48.86)"/>
    <path class="cls-5" d="M656.25,208s-.6,2.93,2.12,3.64" transform="translate(-18.49 -48.86)"/>
    <path class="cls-5" d="M655.44,208.42s-.61,2.93,2.12,3.63" transform="translate(-18.49 -48.86)"/>
    <path class="cls-5" d="M654.69,208.89s-.61,2.93,2.12,3.63" transform="translate(-18.49 -48.86)"/>
    <rect class="cls-2" x="340.47" y="110.64" width="22.17" height="2.46" rx="1.08" ry="1.08"/>
    <rect class="cls-2" x="340.47" y="90.69" width="22.17" height="2.46" rx="1.08" ry="1.08"/>
    <rect class="cls-2" x="348.98" y="149.52" width="22.41" height="2.46" rx="1.08" ry="1.08" transform="translate(190.95 462.08) rotate(-90)"/>
    <rect class="cls-2" x="368.69" y="149.52" width="22.41" height="2.46" rx="1.08" ry="1.08" transform="translate(210.65 481.79) rotate(-90)"/>
    <circle class="cls-2" cx="341.69" cy="111.66" r="0.19"/>
    <circle class="cls-2" cx="361.4" cy="111.66" r="0.19"/>
    <circle class="cls-2" cx="341.69" cy="92.06" r="0.19"/>
    <circle class="cls-2" cx="361.4" cy="92.06" r="0.19"/>
    <path class="cls-2" d="M335.58,103H295.32a1.65,1.65,0,0,0-1.65,1.65V106a1.65,1.65,0,0,0,1.65,1.65h5.79V107a2.35,2.35,0,0,1,2.35-2.35h4.45a2.35,2.35,0,0,1,2.35,2.35v.57h10.38V107a2.35,2.35,0,0,1,2.35-2.35h4.45a2.35,2.35,0,0,1,2.35,2.35v.57h5.79a1.65,1.65,0,0,0,1.65-1.65v-1.35A1.65,1.65,0,0,0,335.58,103Z" transform="translate(-18.49 -48.86)"/>
    <rect class="cls-2" x="285.66" y="51.51" width="22.17" height="2.46" rx="1.08" ry="1.08"/>
    <rect class="cls-2" x="285.66" y="31.56" width="22.17" height="2.46" rx="1.08" ry="1.08"/>
    <rect class="cls-2" x="294.18" y="90.39" width="22.41" height="2.46" rx="1.08" ry="1.08" transform="translate(195.27 348.15) rotate(-90)"/>
    <rect class="cls-2" x="313.89" y="90.39" width="22.41" height="2.46" rx="1.08" ry="1.08" transform="translate(214.98 367.86) rotate(-90)"/>
    <circle class="cls-2" cx="286.89" cy="52.53" r="0.19"/>
    <circle class="cls-2" cx="306.59" cy="52.53" r="0.19"/>
    <circle class="cls-2" cx="286.89" cy="32.93" r="0.19"/>
    <circle class="cls-2" cx="306.59" cy="32.93" r="0.19"/>
    <rect class="cls-2" x="281.52" y="109.56" width="31.89" height="3.54" rx="1.08" ry="1.08"/>
    <rect class="cls-2" x="281.52" y="80.87" width="31.89" height="3.54" rx="1.08" ry="1.08"/>
    <rect class="cls-2" x="285.67" y="144.07" width="32.23" height="3.54" rx="1.08" ry="1.08" transform="translate(137.45 398.77) rotate(-90)"/>
    <rect class="cls-2" x="314.01" y="144.07" width="32.23" height="3.54" rx="1.08" ry="1.08" transform="translate(165.8 427.11) rotate(-90)"/>
    <circle class="cls-2" cx="283.28" cy="111.03" r="0.27"/>
    <circle class="cls-2" cx="311.63" cy="111.03" r="0.27"/>
    <circle class="cls-2" cx="283.28" cy="82.84" r="0.27"/>
    <circle class="cls-2" cx="311.63" cy="82.84" r="0.27"/>
    <rect class="cls-2" x="345.06" y="167.31" width="31.89" height="3.54" rx="1.08" ry="1.08"/>
    <rect class="cls-2" x="345.06" y="138.62" width="31.89" height="3.54" rx="1.08" ry="1.08"/>
    <rect class="cls-2" x="349.21" y="201.82" width="32.23" height="3.54" rx="1.08" ry="1.08" transform="translate(143.24 520.06) rotate(-90)"/>
    <rect class="cls-2" x="377.55" y="201.82" width="32.23" height="3.54" rx="1.08" ry="1.08" transform="translate(171.58 548.4) rotate(-90)"/>
    <circle class="cls-2" cx="346.82" cy="168.78" r="0.27"/>
    <circle class="cls-2" cx="375.17" cy="168.78" r="0.27"/>
    <circle class="cls-2" cx="346.82" cy="140.59" r="0.27"/>
    <circle class="cls-2" cx="375.17" cy="140.59" r="0.27"/>
    <rect class="cls-2" x="346.69" y="50.58" width="31.89" height="3.54" rx="1.08" ry="1.08"/>
    <rect class="cls-2" x="346.69" y="21.89" width="31.89" height="3.54" rx="1.08" ry="1.08"/>
    <rect class="cls-2" x="350.84" y="85.1" width="32.23" height="3.54" rx="1.08" ry="1.08" transform="translate(261.6 404.97) rotate(-90)"/>
    <rect class="cls-2" x="379.19" y="85.1" width="32.23" height="3.54" rx="1.08" ry="1.08" transform="translate(289.94 433.31) rotate(-90)"/>
    <circle class="cls-2" cx="348.46" cy="52.06" r="0.27"/>
    <circle class="cls-2" cx="376.8" cy="52.06" r="0.27"/>
    <circle class="cls-2" cx="348.46" cy="23.87" r="0.27"/>
    <circle class="cls-2" cx="376.8" cy="23.87" r="0.27"/>
    <rect class="cls-2" x="547.93" y="109.87" width="24.26" height="2.7" rx="1.06" ry="1.06"/>
    <rect class="cls-2" x="547.93" y="88.05" width="24.26" height="2.7" rx="1.06" ry="1.06"/>
    <rect class="cls-2" x="555.51" y="147.82" width="24.52" height="2.7" rx="1.06" ry="1.06" transform="translate(400.12 668.08) rotate(-90)"/>
    <rect class="cls-2" x="577.08" y="147.82" width="24.52" height="2.7" rx="1.06" ry="1.06" transform="translate(421.68 689.64) rotate(-90)"/>
    <circle class="cls-2" cx="549.27" cy="110.99" r="0.21"/>
    <circle class="cls-2" cx="570.84" cy="110.99" r="0.21"/>
    <circle class="cls-2" cx="549.27" cy="89.55" r="0.21"/>
    <circle class="cls-2" cx="570.84" cy="89.55" r="0.21"/>
    <rect class="cls-2" x="611.51" y="49.8" width="28.69" height="3.19" rx="1.06" ry="1.06"/>
    <rect class="cls-2" x="611.51" y="23.99" width="28.69" height="3.19" rx="1.06" ry="1.06"/>
    <rect class="cls-2" x="617.09" y="85.75" width="28.99" height="3.19" rx="1.06" ry="1.06" transform="translate(525.75 670.08) rotate(-90)"/>
    <rect class="cls-2" x="642.59" y="85.75" width="28.99" height="3.19" rx="1.06" ry="1.06" transform="translate(551.25 695.58) rotate(-90)"/>
    <circle class="cls-2" cx="613.09" cy="51.12" r="0.24"/>
    <circle class="cls-2" cx="638.59" cy="51.12" r="0.24"/>
    <circle class="cls-2" cx="613.09" cy="25.77" r="0.24"/>
    <circle class="cls-2" cx="638.59" cy="25.77" r="0.24"/>
    <rect class="cls-2" x="544.58" y="85.92" width="19.19" height="2.13" rx="0.93" ry="0.93"/>
    <rect class="cls-2" x="544.58" y="68.65" width="19.19" height="2.13" rx="0.93" ry="0.93"/>
    <rect class="cls-2" x="554.44" y="126.14" width="19.4" height="2.13" rx="0.93" ry="0.93" transform="translate(418.44 642.49) rotate(-90)"/>
    <rect class="cls-2" x="571.5" y="126.14" width="19.4" height="2.13" rx="0.93" ry="0.93" transform="translate(435.5 659.55) rotate(-90)"/>
    <circle class="cls-2" cx="545.64" cy="86.8" r="0.16"/>
    <circle class="cls-2" cx="562.7" cy="86.8" r="0.16"/>
    <circle class="cls-2" cx="545.64" cy="69.84" r="0.16"/>
    <circle class="cls-2" cx="562.7" cy="69.84" r="0.16"/>
    <rect class="cls-2" x="607.17" y="169.08" width="19.19" height="2.13" rx="0.93" ry="0.93"/>
    <rect class="cls-2" x="607.17" y="151.82" width="19.19" height="2.13" rx="0.93" ry="0.93"/>
    <rect class="cls-2" x="617.02" y="209.31" width="19.4" height="2.13" rx="0.93" ry="0.93" transform="translate(397.86 788.24) rotate(-90)"/>
    <rect class="cls-2" x="634.08" y="209.31" width="19.4" height="2.13" rx="0.93" ry="0.93" transform="translate(414.92 805.3) rotate(-90)"/>
    <circle class="cls-2" cx="608.23" cy="169.97" r="0.16"/>
    <circle class="cls-2" cx="625.29" cy="169.97" r="0.16"/>
    <circle class="cls-2" cx="608.23" cy="153" r="0.16"/>
    <circle class="cls-2" cx="625.29" cy="153" r="0.16"/>
    <rect class="cls-2" x="627.99" y="169.08" width="19.19" height="2.13" rx="0.93" ry="0.93"/>
    <rect class="cls-2" x="627.99" y="151.82" width="19.19" height="2.13" rx="0.93" ry="0.93"/>
    <rect class="cls-2" x="637.85" y="209.31" width="19.4" height="2.13" rx="0.93" ry="0.93" transform="translate(418.68 809.06) rotate(-90)"/>
    <rect class="cls-2" x="654.91" y="209.31" width="19.4" height="2.13" rx="0.93" ry="0.93" transform="translate(435.74 826.12) rotate(-90)"/>
    <circle class="cls-2" cx="629.05" cy="169.97" r="0.16"/>
    <circle class="cls-2" cx="646.11" cy="169.97" r="0.16"/>
    <circle class="cls-2" cx="629.05" cy="153" r="0.16"/>
    <circle class="cls-2" cx="646.11" cy="153" r="0.16"/>
    <rect class="cls-2" x="415.26" y="109.63" width="27.06" height="3.01" rx="1.08" ry="1.08"/>
    <rect class="cls-2" x="415.26" y="85.29" width="27.06" height="3.01" rx="1.08" ry="1.08"/>
    <rect class="cls-2" x="421.58" y="146.32" width="27.35" height="3.01" rx="1.08" ry="1.08" transform="translate(268.94 534.22) rotate(-90)"/>
    <rect class="cls-2" x="445.63" y="146.32" width="27.35" height="3.01" rx="1.08" ry="1.08" transform="translate(292.99 558.27) rotate(-90)"/>
    <circle class="cls-2" cx="416.76" cy="110.88" r="0.23"/>
    <circle class="cls-2" cx="440.81" cy="110.88" r="0.23"/>
    <circle class="cls-2" cx="416.76" cy="86.97" r="0.23"/>
    <circle class="cls-2" cx="440.81" cy="86.97" r="0.23"/>
    <rect class="cls-2" x="476.83" y="167.12" width="37.16" height="4.13" rx="1.08" ry="1.08"/>
    <rect class="cls-2" x="476.83" y="133.69" width="37.16" height="4.13" rx="1.08" ry="1.08"/>
    <rect class="cls-2" x="478.61" y="199.26" width="37.56" height="4.13" rx="1.08" ry="1.08" transform="translate(277.57 649.85) rotate(-90)"/>
    <rect class="cls-2" x="511.64" y="199.26" width="37.56" height="4.13" rx="1.08" ry="1.08" transform="translate(310.6 682.88) rotate(-90)"/>
    <circle class="cls-2" cx="478.88" cy="168.83" r="0.32"/>
    <circle class="cls-2" cx="511.91" cy="168.83" r="0.32"/>
    <circle class="cls-2" cx="478.88" cy="135.99" r="0.32"/>
    <circle class="cls-2" cx="511.91" cy="135.99" r="0.32"/>
    <path class="cls-2" d="M598.69,220.26H558.42a1.65,1.65,0,0,0-1.65,1.65v1.35a1.65,1.65,0,0,0,1.65,1.65h5.8v-.57a2.34,2.34,0,0,1,2.34-2.35H571a2.35,2.35,0,0,1,2.34,2.35v.57h10.38v-.57a2.35,2.35,0,0,1,2.35-2.35h4.46a2.35,2.35,0,0,1,2.34,2.35v.57h5.8a1.64,1.64,0,0,0,1.64-1.65v-1.35A1.64,1.64,0,0,0,598.69,220.26Z" transform="translate(-18.49 -48.86)"/>
    <rect class="cls-2" x="543.88" y="167.66" width="32.37" height="3.6" rx="1.08" ry="1.08"/>
    <rect class="cls-2" x="543.88" y="138.53" width="32.37" height="3.6" rx="1.08" ry="1.08"/>
    <rect class="cls-2" x="547.8" y="201.95" width="32.72" height="3.6" rx="1.08" ry="1.08" transform="translate(341.92 719.06) rotate(-90)"/>
    <rect class="cls-2" x="576.58" y="201.95" width="32.72" height="3.6" rx="1.08" ry="1.08" transform="translate(370.7 747.84) rotate(-90)"/>
    <circle class="cls-2" cx="545.66" cy="169.16" r="0.27"/>
    <circle class="cls-2" cx="574.44" cy="169.16" r="0.27"/>
    <circle class="cls-2" cx="545.66" cy="140.54" r="0.27"/>
    <circle class="cls-2" cx="574.44" cy="140.54" r="0.27"/>
    <rect class="cls-2" x="364.53" y="111.15" width="17.58" height="1.95" rx="0.86" ry="0.86"/>
    <rect class="cls-2" x="364.53" y="95.33" width="17.58" height="1.95" rx="0.86" ry="0.86"/>
    <rect class="cls-2" x="375.11" y="152.1" width="17.77" height="1.95" rx="0.86" ry="0.86" transform="translate(212.43 488.21) rotate(-90)"/>
    <rect class="cls-2" x="390.73" y="152.1" width="17.77" height="1.95" rx="0.86" ry="0.86" transform="translate(228.05 503.83) rotate(-90)"/>
    <circle class="cls-2" cx="365.5" cy="111.96" r="0.15"/>
    <circle class="cls-2" cx="381.12" cy="111.96" r="0.15"/>
    <circle class="cls-2" cx="365.5" cy="96.42" r="0.15"/>
    <circle class="cls-2" cx="381.12" cy="96.42" r="0.15"/>
    <rect class="cls-2" x="475.16" y="52.09" width="17.58" height="1.95" rx="0.86" ry="0.86"/>
    <rect class="cls-2" x="475.16" y="36.27" width="17.58" height="1.95" rx="0.86" ry="0.86"/>
    <rect class="cls-2" x="485.74" y="93.04" width="17.77" height="1.95" rx="0.86" ry="0.86" transform="translate(382.12 539.78) rotate(-90)"/>
    <rect class="cls-2" x="501.36" y="93.04" width="17.77" height="1.95" rx="0.86" ry="0.86" transform="translate(397.74 555.4) rotate(-90)"/>
    <circle class="cls-2" cx="476.13" cy="52.9" r="0.15"/>
    <circle class="cls-2" cx="491.75" cy="52.9" r="0.15"/>
    <circle class="cls-2" cx="476.13" cy="37.36" r="0.15"/>
    <circle class="cls-2" cx="491.75" cy="37.36" r="0.15"/>
    <rect class="cls-2" x="494" y="51.9" width="19.22" height="2.14" rx="0.86" ry="0.86"/>
    <rect class="cls-2" x="494" y="34.62" width="19.22" height="2.14" rx="0.86" ry="0.86"/>
    <rect class="cls-2" x="503.85" y="92.12" width="19.42" height="2.14" rx="0.86" ry="0.86" transform="translate(401.88 557.88) rotate(-90)"/>
    <rect class="cls-2" x="520.93" y="92.12" width="19.42" height="2.14" rx="0.86" ry="0.86" transform="translate(418.97 574.97) rotate(-90)"/>
    <circle class="cls-2" cx="495.06" cy="52.79" r="0.16"/>
    <circle class="cls-2" cx="512.14" cy="52.79" r="0.16"/>
    <circle class="cls-2" cx="495.06" cy="35.8" r="0.16"/>
    <circle class="cls-2" cx="512.14" cy="35.8" r="0.16"/>
    <path class="cls-8" d="M519.76,201.93a2.62,2.62,0,0,1,2.71,3.29c-.59,3.33-5.23,6.17-10.51,4.1s-7.76-6-5.59-12.22,7.69-4.15,7.69-4.15a4.89,4.89,0,0,1,3,4.51C516.53,201.77,519.76,201.93,519.76,201.93Z" transform="translate(-18.49 -48.86)"/>
    <path class="cls-8" d="M518.2,203c.81.1,2.68.26,2.65,1.93-.49,2.79-4.13,4.79-8.55,3.05s-6.49-5-4.68-10.23c1.72-4.35,4.76-4.2,6.44-3.48,1,.41,1.91,1.55,1.76,3.73C515.37,201.65,516.85,202.74,518.2,203Z" transform="translate(-18.49 -48.86)"/>
    <circle class="cls-8" cx="493.08" cy="148.26" r="1.41"/>
    <path class="cls-8" d="M507,200.61c2.25-1,4.61.71,4.61.71s2.59,2,4.35-.51" transform="translate(-18.49 -48.86)"/>
    <path class="cls-8" d="M507.29,203.41a6.09,6.09,0,0,1,5.26.57c3.37,1.67,4.82.1,4.75-1.28,0,0,1,3.54-3.39,5.8" transform="translate(-18.49 -48.86)"/>
    <line class="cls-8" x1="359.86" y1="152.09" x2="362.62" y2="156.97"/>
    <line class="cls-8" x1="359.74" y1="156.87" x2="362.8" y2="152.2"/>
    <line class="cls-8" x1="358.46" y1="154.53" x2="364.09" y2="154.53"/>
    <polyline class="cls-8" points="359.45 152.91 360.49 153.21 360.83 152.2"/>
    <polyline class="cls-8" points="361.87 152.2 362.14 153.21 363.19 153.06"/>
    <polyline class="cls-8" points="363.54 153.77 362.88 154.54 363.54 155.29"/>
    <polyline class="cls-8" points="361.71 156.87 362.01 155.88 363.02 156.16"/>
    <polyline class="cls-8" points="359.38 156.03 360.43 155.82 360.68 156.87"/>
    <polyline class="cls-8" points="358.98 153.77 359.64 154.53 358.98 155.4"/>
    <path class="cls-8" d="M374.71,204.63l-.09-.76c-.08-.77-.84-2.71-1.31-4.32s1.31-1.39,1.31-1.39h10.1a1,1,0,0,1,1,1.3,15.32,15.32,0,0,0-.31,3.78" transform="translate(-18.49 -48.86)"/>
    <path class="cls-8" d="M384.29,201a6.21,6.21,0,0,1,1.19,3.33c.65,2.47.7,3.46.42,3.81s-.62.42-1.61.36-7.78-.33-9.58.1c0,0-1.8.76-1.65-1.27s.91-3.56.88-5.8" transform="translate(-18.49 -48.86)"/>
    <path class="cls-8" d="M372.93,209" transform="translate(-18.49 -48.86)"/>
    <path class="cls-8" d="M448.39,144.66a1,1,0,0,0-1.25,0c-1,.47-6.28,9.33-6.59,9.65s-.54,1.54.72.88,7.81-5,8.79-6.07c1.61-1.8,1.43-1.31,1-1.69" transform="translate(-18.49 -48.86)"/>
    <path class="cls-8" d="M446.91,147.75a2.83,2.83,0,0,1-1.1-1.5" transform="translate(-18.49 -48.86)"/>
    <path class="cls-8" d="M448.42,147s1.56,1.76,2.07,1.64" transform="translate(-18.49 -48.86)"/>
    <path class="cls-8" d="M446.55,149.72s.9,1.18,1.61,1" transform="translate(-18.49 -48.86)"/>
    <path class="cls-8" d="M444.62,150s-.68-.38-.72-.87" transform="translate(-18.49 -48.86)"/>
    <path class="cls-8" d="M443.9,152.17a1.75,1.75,0,0,0,.94.8" transform="translate(-18.49 -48.86)"/>
    <path class="cls-8" d="M442.38,153.19s-.59-.25-.69-.62" transform="translate(-18.49 -48.86)"/>
    <path class="cls-8" d="M448.93,146.66s-.4-3.23-2.16-3.82-.52-2.47.94-1.64A3.74,3.74,0,0,1,448.93,146.66Z" transform="translate(-18.49 -48.86)"/>
    <path class="cls-8" d="M451.68,148a3.86,3.86,0,0,0-2.74-1.08c-.29-.22,1.68-1.17,3.95-.25a1.94,1.94,0,0,1,1.25,2.35C454,149.42,453,149.24,451.68,148Z" transform="translate(-18.49 -48.86)"/>
    <path class="cls-8" d="M451.17,147.55" transform="translate(-18.49 -48.86)"/>
    <path class="cls-8" d="M451.17,147.55" transform="translate(-18.49 -48.86)"/>
    <path class="cls-8" d="M451.06,147.82" transform="translate(-18.49 -48.86)"/>
    <path class="cls-8" d="M448.91,146.76a4.81,4.81,0,0,0,1.58-4.26,1.72,1.72,0,0,0-2.65-1.23" transform="translate(-18.49 -48.86)"/>
    <path class="cls-8" d="M454,147.63c.86-1.4-.77-2.24-.77-2.24a3.4,3.4,0,0,0-3.79.86" transform="translate(-18.49 -48.86)"/>
    <path class="cls-8" d="M450.53,142.84a1.94,1.94,0,0,1,2.43-.22s1.59,1.19-.35,2.59" transform="translate(-18.49 -48.86)"/>
    <path class="cls-5" d="M638.09,206.52a13,13,0,0,1-.53,4,16.61,16.61,0,0,0-.66,4.83,15.08,15.08,0,0,1-3.29,0,16.61,16.61,0,0,0-.66-4.83,17.38,17.38,0,0,1-.74-4,1.62,1.62,0,0,0,.46,0" transform="translate(-18.49 -48.86)"/>
    <path class="cls-7" d="M635.79,209.83s0,.16,0,.5-.54.67-.65-.21c-.06-.41,0-2.88,0-3.29s-.77-.24-.92,0-.55.7-.84.1c-.16,0-.56.23-.59-.39,0-.91.92-.61.92-.61s.22-.45.9-.17a1,1,0,0,1,1.39,0,.66.66,0,0,1,.89.17.7.7,0,0,1,1,.57c0,.18-.6.21-.6,1.15" transform="translate(-18.49 -48.86)"/>
    <path class="cls-7" d="M635.8,209.89s0-2.36,0-3c0-.43.61-.62.74,0a7.81,7.81,0,0,1,0,1.37c0,.69.76.78.73-.33" transform="translate(-18.49 -48.86)"/>
    <line class="cls-7" x1="615.78" y1="165.94" x2="617.75" y2="165.94"/>
    <path class="cls-7" d="M632.5,208.42a.88.88,0,0,0,.79-.14.54.54,0,0,1,.82,0,.77.77,0,0,0,1,.05" transform="translate(-18.49 -48.86)"/>
    <path class="cls-7" d="M635.79,208.26a.75.75,0,0,1,.72-.12" transform="translate(-18.49 -48.86)"/>
    <path class="cls-7" d="M637.23,208.29a1,1,0,0,0,.78.08" transform="translate(-18.49 -48.86)"/>
    <path class="cls-7" d="M635.79,209.81s0,.16,0,.5-.54.67-.65-.21c-.06-.41,0-2.88,0-3.29s-.77-.24-.92,0-.55.7-.84.1c-.16,0-.56.23-.59-.39,0-.91.92-.61.92-.61s.22-.45.9-.17a1,1,0,0,1,1.39,0,.66.66,0,0,1,.89.17.7.7,0,0,1,1,.57c0,.18-.6.21-.6,1.15" transform="translate(-18.49 -48.86)"/>
    <path class="cls-5" d="M632.74,206.5" transform="translate(-18.49 -48.86)"/>
    <path class="cls-5" d="M632.21,206.52h.46" transform="translate(-18.49 -48.86)"/>
    <rect class="cls-4" x="293.29" y="40.23" width="6.92" height="7.88"/>
    <rect class="cls-4" x="293.29" y="37.42" width="6.92" height="2.81"/>
    <rect class="cls-4" x="554.88" y="151.98" width="10.97" height="6.12" rx="2.68" ry="2.68"/>
    <polygon class="cls-4" points="550.65 151.98 554.88 155.04 550.78 158.46 550.65 151.98"/>
    <polygon class="cls-4" points="570.12 151.98 565.9 155.04 569.99 158.46 570.12 151.98"/>
    <path class="cls-7" d="M500.71,97.11h4.17a12.93,12.93,0,0,0,1.63-5.3c-2.74.08-7.33,0-7.33,0A9.32,9.32,0,0,0,500.71,97.11Z" transform="translate(-18.49 -48.86)"/>
    <path class="cls-7" d="M499.17,93s-1.11-.12-.73,1a3.26,3.26,0,0,0,1.46,1.65" transform="translate(-18.49 -48.86)"/>
    <path class="cls-4" d="M368.6,147.35A1.51,1.51,0,0,0,370,148.7l1.34.1a3.17,3.17,0,0,1,2.56,2.12,4.3,4.3,0,0,1-1,4.69" transform="translate(-18.49 -48.86)"/>
    <path class="cls-4" d="M367.22,148.1A4.61,4.61,0,0,0,366,151" transform="translate(-18.49 -48.86)"/>
    <path class="cls-4" d="M370.21,148.71a3.94,3.94,0,0,0-.4-1.72,1.2,1.2,0,0,1,.83,0,3.8,3.8,0,0,1-.1,1.72" transform="translate(-18.49 -48.86)"/>
    <path class="cls-4" d="M375,144.26s-3.8-.75-4.39,2.73C373.42,147.43,375.08,145.66,375,144.26Z" transform="translate(-18.49 -48.86)"/>
    <line class="cls-4" x1="354.82" y1="96.27" x2="352.21" y2="98.05"/>
    <path class="cls-4" d="M373.09,146.78a4.49,4.49,0,0,1-2.39.21,3.41,3.41,0,0,1,.28-1.09,5.86,5.86,0,0,0-.94-.08,5.33,5.33,0,1,0,3,1Z" transform="translate(-18.49 -48.86)"/>
    <path class="cls-5" d="M521.1,91.11a1,1,0,0,0,1,.94l.93.07a2.18,2.18,0,0,1,1.77,1.47,3,3,0,0,1-.67,3.25" transform="translate(-18.49 -48.86)"/>
    <path class="cls-5" d="M520.14,91.63a3.2,3.2,0,0,0-.82,2" transform="translate(-18.49 -48.86)"/>
    <path class="cls-5" d="M522.21,92.06a2.77,2.77,0,0,0-.27-1.2.85.85,0,0,1,.57,0,2.67,2.67,0,0,1-.06,1.2" transform="translate(-18.49 -48.86)"/>
    <path class="cls-5" d="M525.56,89s-2.63-.52-3,1.89C524.44,91.17,525.6,89.94,525.56,89Z" transform="translate(-18.49 -48.86)"/>
    <line class="cls-5" x1="505.88" y1="40.71" x2="504.06" y2="41.95"/>
    <path class="cls-5" d="M524.22,90.72a3.32,3.32,0,0,1-1.67.14,2.28,2.28,0,0,1,.2-.75,3.49,3.49,0,0,0-.65-.06,3.71,3.71,0,1,0,2.12.67Z" transform="translate(-18.49 -48.86)"/>
    <polygon class="cls-5" points="290.77 100.23 291.32 104.09 304.03 104.09 304.64 100.23 290.95 100.23 290.77 100.23"/>
    <rect class="cls-5" x="289.98" y="98.99" width="15.17" height="1.25" rx="0.55" ry="0.55"/>
    <path class="cls-5" d="M318.1,140a1,1,0,0,0-.52-1.76,1,1,0,0,0-.39.08s0-.06,0-.08a1,1,0,0,0-1.93,0,.88.88,0,0,0,0,.16,1,1,0,0,0-.54-.16,1,1,0,0,0-1,1,.94.94,0,0,0,.44.8,1,1,0,0,0-.44.81,1,1,0,0,0,1,1,1,1,0,0,0,.53-.16s0,0,0,.06a1,1,0,0,0,1.92,0,1,1,0,0,0,.39.08,1,1,0,0,0,1-1A1,1,0,0,0,318.1,140Z" transform="translate(-18.49 -48.86)"/>
    <circle class="cls-5" cx="297.67" cy="91.21" r="0.71"/>
    <path class="cls-5" d="M317,144.48a1.75,1.75,0,0,1,2-1.94A1.62,1.62,0,0,1,317,144.48Z" transform="translate(-18.49 -48.86)"/>
    <line class="cls-5" x1="297.67" y1="93.8" x2="297.67" y2="98.99"/>
    <line class="cls-5" x1="298.5" y1="95.63" x2="297.67" y2="96.51"/>
    <path class="cls-5" d="M315.34,144.48a1.75,1.75,0,0,0-2-1.94A1.62,1.62,0,0,0,315.34,144.48Z" transform="translate(-18.49 -48.86)"/>
    <line class="cls-5" x1="296.85" y1="95.63" x2="297.67" y2="96.51"/>
    <path class="cls-5" d="M312.2,141.41a.77.77,0,0,0,.36-.66.79.79,0,0,0-.79-.79.83.83,0,0,0-.32.07s0,0,0-.07a.8.8,0,0,0-1.59,0,.68.68,0,0,0,0,.14.77.77,0,0,0-.45-.14.79.79,0,0,0-.43,1.45.81.81,0,0,0-.36.67.8.8,0,0,0,.79.79.77.77,0,0,0,.44-.14s0,0,0,.06a.8.8,0,0,0,.79.79.78.78,0,0,0,.79-.78.88.88,0,0,0,.32.07.79.79,0,0,0,.43-1.46Z" transform="translate(-18.49 -48.86)"/>
    <circle class="cls-5" cx="292.12" cy="92.58" r="0.59"/>
    <path class="cls-5" d="M311.28,145.08a1.45,1.45,0,0,1,1.62-1.6A1.34,1.34,0,0,1,311.28,145.08Z" transform="translate(-18.49 -48.86)"/>
    <line class="cls-5" x1="292.12" y1="94.72" x2="292.12" y2="98.99"/>
    <line class="cls-5" x1="292.79" y1="96.22" x2="292.12" y2="96.95"/>
    <path class="cls-5" d="M309.93,145.08a1.45,1.45,0,0,0-1.61-1.6A1.33,1.33,0,0,0,309.93,145.08Z" transform="translate(-18.49 -48.86)"/>
    <line class="cls-5" x1="291.44" y1="96.22" x2="292.12" y2="96.95"/>
    <path class="cls-5" d="M323.4,141.41a.77.77,0,0,0,.36-.66A.79.79,0,0,0,323,140a.88.88,0,0,0-.32.07s0,0,0-.07a.79.79,0,1,0-1.58,0,.66.66,0,0,0,0,.14.77.77,0,0,0-.45-.14.8.8,0,0,0-.79.79.78.78,0,0,0,.37.66.79.79,0,0,0,.42,1.46.72.72,0,0,0,.44-.14v.06a.79.79,0,0,0,1.58,0,.78.78,0,0,0,.31.07.79.79,0,0,0,.43-1.46Z" transform="translate(-18.49 -48.86)"/>
    <circle class="cls-5" cx="303.32" cy="92.58" r="0.59"/>
    <path class="cls-5" d="M322.48,145.08a1.45,1.45,0,0,1,1.62-1.6A1.34,1.34,0,0,1,322.48,145.08Z" transform="translate(-18.49 -48.86)"/>
    <line class="cls-5" x1="303.32" y1="94.72" x2="303.32" y2="98.99"/>
    <line class="cls-5" x1="303.99" y1="96.22" x2="303.32" y2="96.95"/>
    <path class="cls-5" d="M321.13,145.08a1.44,1.44,0,0,0-1.61-1.6A1.33,1.33,0,0,0,321.13,145.08Z" transform="translate(-18.49 -48.86)"/>
    <line class="cls-5" x1="302.64" y1="96.22" x2="303.32" y2="96.95"/>
    <rect class="cls-6" x="620.03" y="32.38" width="5.51" height="12.81" rx="2.41" ry="2.41"/>
    <line class="cls-6" x1="625.54" y1="38.79" x2="620.03" y2="38.79"/>
    <path class="cls-6" d="M641.75,82.07a2.39,2.39,0,0,1,1.5,1.8c.06,1.29,0,3.33,0,3.33" transform="translate(-18.49 -48.86)"/>
    <path class="cls-6" d="M639.25,91.73a2.26,2.26,0,0,0,1.29,1.42" transform="translate(-18.49 -48.86)"/>
    <path class="cls-6" d="M645.88,86.48,650,90.6s2.58-.65,1.94-2.51S645.88,86.48,645.88,86.48Z" transform="translate(-18.49 -48.86)"/>
    <path class="cls-6" d="M644,86.7l4,4.18s-2.55.38-4-.55" transform="translate(-18.49 -48.86)"/>
    <path class="cls-6" d="M643.91,92.07a11.6,11.6,0,0,0,5.58.37c2.42-.53,2.66-1.73,2.66-1.73l0-2.18" transform="translate(-18.49 -48.86)"/>
    <path class="cls-6" d="M648,90.88V92s1.58.1,2-.57l0-.85" transform="translate(-18.49 -48.86)"/>
    <polyline class="cls-6" points="626.15 38.49 627.39 38.5 627.39 37.63"/>
    <line class="cls-6" x1="631.58" y1="42.59" x2="627.39" y2="38.46"/>
    <rect class="cls-9" x="372.59" y="99.67" width="1.54" height="1.01" rx="0.44" ry="0.44"/>
    <rect class="cls-9" x="371.86" y="103" width="2.9" height="2.1" rx="0.92" ry="0.92"/>
    <path class="cls-9" d="M393.27,156.31a3.13,3.13,0,0,1-.3-1.11,5.65,5.65,0,0,1,.3-1.29s0-1.6,0-2.08a4.52,4.52,0,0,0-.61-1.43,4.13,4.13,0,0,1-.25-.86h-1.11a3.79,3.79,0,0,1-.26.86,4.53,4.53,0,0,0-.6,1.43c0,.48-.05,2.08-.05,2.08a5.65,5.65,0,0,1,.3,1.29,3.35,3.35,0,0,1-.3,1.11c0,.14-.3,1.05.94,1.08a.71.71,0,0,0,1.05,0C393.57,157.36,393.27,156.45,393.27,156.31Z" transform="translate(-18.49 -48.86)"/>
    <path class="cls-4" d="M387,86.76a2.68,2.68,0,0,0-1.45-4.93,2.63,2.63,0,0,0-1.09.23c0-.08,0-.15,0-.23a2.69,2.69,0,1,0-5.37,0,2.5,2.5,0,0,0,.05.47,2.63,2.63,0,0,0-1.52-.47,2.68,2.68,0,0,0-1.45,4.93,2.68,2.68,0,0,0,1.45,4.93,2.64,2.64,0,0,0,1.49-.45,1.1,1.1,0,0,0,0,.18,2.68,2.68,0,0,0,5.36,0,2.78,2.78,0,0,0,1.08.22A2.68,2.68,0,0,0,387,86.76Z" transform="translate(-18.49 -48.86)"/>
    <circle class="cls-4" cx="363.1" cy="37.83" r="1.99"/>
    <line class="cls-10" x1="363.1" y1="35.84" x2="363.1" y2="33.82"/>
    <line class="cls-10" x1="363.1" y1="39.82" x2="363.1" y2="41.91"/>
    <line class="cls-10" x1="361.39" y1="36.81" x2="359.75" y2="35.74"/>
    <line class="cls-10" x1="364.82" y1="36.81" x2="366.58" y2="35.59"/>
    <line class="cls-10" x1="361.39" y1="38.84" x2="359.51" y2="39.82"/>
    <line class="cls-10" x1="364.82" y1="38.84" x2="366.58" y2="39.89"/>
</svg>
